<svg xmlns="http://www.w3.org/2000/svg" xmlns:xlink="http://www.w3.org/1999/xlink" style="isolation:isolate" width="253" height="106" viewBox="0 0 253 106"><rect width="253" height="106" x="0" y="0" fill="#33444D" transform="matrix(1,0,0,1,0,0)"/><g id="new document"><path fill="#3D5B5E" d="M 96.364 14.279 L 137.393 14.279 L 156.636 33.582 L 156.636 91.721 L 96.364 91.721 L 96.364 14.279 Z"/><path fill="#3C9287" d="M 137.897 15.224 L 155.188 32.438 L 138.036 32.438 L 137.897 15.224 Z"/><path fill="#262E34" fill-rule="evenodd" d="M 138.036 12 L 135.617 12 L 94.59 12 L 94.59 94 L 158.41 94 L 158.41 34.793 L 158.41 32.438 L 138.036 12 Z M 135.617 14.279 L 96.364 14.279 L 96.364 91.721 L 156.636 91.721 L 156.636 34.793 L 135.617 34.793 L 135.617 14.279 Z M 137.897 15.224 L 155.188 32.438 L 138.036 32.438 L 137.897 15.224 Z"/></g></svg>